<svg width="124" height="174" viewBox="0 0 124 174" fill="none" xmlns="http://www.w3.org/2000/svg">
<path d="M78.9265 67.5947V67.9855V86.6099H81.401V78.1443H92.2111V86.6099H94.6856V67.5947H92.2111V75.9302H81.401V67.9855V67.5947H78.9265Z" fill="white"/>
<path d="M39.5932 56.265V37.2497H37.2489V45.5852H26.3086V37.6405V37.2497H23.834V37.6405V56.265H26.1784V47.7993H37.1186V56.265H39.5932ZM59.6504 50.7948C59.6504 53.1392 58.0875 54.1811 56.1339 54.1811H53.0081V47.4086H56.1339C58.0875 47.4086 59.6504 48.4505 59.6504 50.7948ZM62.125 50.7948C62.125 47.1481 59.6504 45.0642 56.1339 45.0642H53.0081V37.5102H50.5335V56.1347V56.5254H56.1339C59.6504 56.5254 62.125 54.3113 62.125 50.7948ZM97.5506 46.7573C97.5506 50.9251 94.4248 54.1811 90.2571 54.1811C86.0894 54.1811 82.9636 50.9251 82.9636 46.7573C82.9636 42.5896 86.0894 39.3336 90.2571 39.3336C94.4248 39.3336 97.5506 42.7199 97.5506 46.7573ZM100.025 46.7573C100.025 41.157 95.8575 36.9893 90.2571 36.9893C85.1777 36.9893 81.2705 40.5058 80.6192 45.4549H74.1072V37.2497H71.7628V56.265H74.2374V47.7993H80.6192C81.1402 52.8787 85.1777 56.5254 90.3873 56.5254C95.7272 56.6557 100.025 52.3577 100.025 46.7573ZM36.3372 69.9403V67.5959H23.834V69.9403H28.9134V86.6111H31.2578V69.9403H36.3372ZM65.381 77.1036C65.381 81.2713 62.2552 84.5273 58.0875 84.5273C53.9198 84.5273 50.794 81.2713 50.794 77.1036C50.794 72.9358 53.9198 69.6798 58.0875 69.6798C62.2552 69.6798 65.381 72.9358 65.381 77.1036ZM67.8556 77.1036C67.8556 71.5032 63.6879 67.3355 58.0875 67.3355C52.4871 67.3355 48.3194 71.5032 48.3194 77.1036C48.3194 82.7039 52.4871 86.8716 58.0875 86.8716C63.5576 86.8716 67.8556 82.7039 67.8556 77.1036Z" fill="white"/>
<path d="M110.314 61.6028H13.5449V62.3842H110.314V61.6028Z" fill="white"/>
<path d="M1.43264 122.427H122.427V1.43266H1.43264V122.427ZM123.859 123.859H0V0H123.859V123.859Z" fill="white"/>
<path d="M85.5687 149.517C85.4385 149.517 85.3082 149.386 85.3082 149.256C85.178 149.126 85.178 148.996 85.178 148.865C85.178 148.735 85.178 148.475 85.178 148.344H84.5268C84.3966 148.344 84.3966 148.344 84.3966 148.475C84.3966 148.605 84.2663 148.605 84.2663 148.735C84.2663 148.996 84.2663 149.126 84.3966 149.386C84.5268 149.647 84.657 149.777 84.7873 149.907C84.9175 150.038 85.178 150.168 85.4385 150.168C85.699 150.298 85.9595 150.298 86.22 150.298C86.4804 150.298 86.7409 150.298 87.0014 150.168C87.2619 150.038 87.3921 150.038 87.6526 149.907C87.7829 149.777 87.9131 149.647 88.0433 149.386C88.1736 149.126 88.1736 148.996 88.1736 148.735C88.1736 148.605 88.1736 148.605 88.0433 148.475C88.0433 148.344 87.9131 148.344 87.7829 148.344H87.1317C87.1317 148.605 87.1317 148.735 87.1317 148.865C87.1317 148.996 87.0014 149.126 87.0014 149.256C86.8712 149.386 86.8712 149.386 86.7409 149.517C86.6107 149.517 86.4804 149.517 86.22 149.517C85.9595 149.647 85.699 149.517 85.5687 149.517ZM83.7454 158.113C83.8756 158.113 83.8756 158.113 84.0058 157.982C84.1361 157.982 84.1361 157.852 84.1361 157.722C84.7873 156.94 85.3083 156.159 85.699 155.508C85.9595 155.247 86.0897 154.987 86.3502 154.726C86.6107 154.466 86.7409 154.205 86.8712 153.945C87.0014 153.684 87.1316 153.554 87.2619 153.424C87.3921 153.294 87.3921 153.163 87.3921 153.163C87.3921 153.163 87.5224 153.033 87.5224 152.903C87.5224 152.773 87.6526 152.773 87.6526 152.642C87.6526 152.773 87.6526 152.903 87.6526 152.903C87.6526 153.033 87.6526 153.163 87.6526 153.163V157.852H88.8248V151.08H88.0433C87.9131 151.08 87.9131 151.08 87.7829 151.21C87.6526 151.34 87.6526 151.34 87.6526 151.47C87.0014 152.252 86.4804 153.033 85.9595 153.684C85.699 153.945 85.5687 154.205 85.3082 154.466C85.0478 154.726 84.9175 154.987 84.7873 155.247C84.657 155.508 84.5268 155.638 84.3966 155.768C84.2663 155.898 84.2663 156.029 84.2663 156.029C84.2663 156.029 84.1361 156.159 84.1361 156.289C84.1361 156.419 84.0058 156.419 84.0058 156.55C84.0058 156.419 84.0058 156.289 84.0058 156.289C84.0058 156.159 84.0058 156.159 84.0058 156.029V151.34H82.8337V158.113H83.7454ZM73.4563 156.55C73.0656 156.159 72.9353 155.508 72.9353 154.596C72.9353 154.205 72.9353 153.815 73.0656 153.554C73.1958 153.294 73.3261 152.903 73.4563 152.773C73.5866 152.512 73.847 152.382 74.1075 152.252C74.368 152.121 74.6285 152.122 75.0192 152.122C75.6704 152.122 76.1914 152.382 76.5821 152.773C76.9728 153.163 77.1031 153.815 77.1031 154.726C77.1031 155.508 76.9728 156.159 76.5821 156.68C76.1914 157.071 75.8006 157.331 75.0192 157.331C74.2377 157.201 73.7168 156.94 73.4563 156.55ZM73.5865 151.34C73.1958 151.47 72.8051 151.731 72.5446 151.991C72.2841 152.252 72.0237 152.642 71.8934 153.163C71.7632 153.554 71.6329 154.075 71.6329 154.596C71.6329 155.117 71.7632 155.638 71.8934 156.029C72.0237 156.419 72.2841 156.81 72.5446 157.071C72.8051 157.331 73.1958 157.592 73.5865 157.722C73.9773 157.852 74.4982 157.982 74.8889 157.982C75.4099 157.982 75.8006 157.852 76.1914 157.722C76.5821 157.592 76.9728 157.331 77.2333 157.071C77.4938 156.81 77.7543 156.419 77.8845 156.029C78.0148 155.638 78.145 155.117 78.145 154.596C78.145 154.075 78.0148 153.554 77.8845 153.163C77.7543 152.773 77.4938 152.382 77.2333 151.991C76.9728 151.731 76.5821 151.47 76.1914 151.34C75.8006 151.21 75.2797 151.08 74.8889 151.08C74.368 151.08 73.9773 151.21 73.5865 151.34ZM62.3858 151.21C62.3858 152.121 62.2556 152.773 62.2556 153.424C62.1253 154.075 62.1253 154.596 61.9951 154.987C61.8648 155.378 61.7346 155.768 61.6044 156.029C61.4741 156.289 61.3439 156.55 61.2136 156.68C61.0834 156.81 60.9531 156.94 60.6927 156.94C60.5624 156.94 60.4322 157.071 60.1717 157.071H59.781V157.852C59.781 157.982 59.9112 157.982 60.302 157.982C60.5624 157.982 60.6927 157.982 60.9532 157.852C61.2136 157.852 61.3439 157.722 61.6044 157.592C61.8648 157.461 61.9951 157.201 62.2556 156.94C62.3858 156.68 62.6463 156.289 62.7765 155.898C62.9068 155.508 63.037 154.857 63.1672 154.336C63.2975 153.684 63.2975 152.903 63.4277 152.122H65.6418V157.982H66.814V151.21H62.3858ZM50.4036 158.113C50.5338 158.113 50.5339 158.113 50.6641 157.982C50.7943 157.982 50.7943 157.852 50.7943 157.722C51.4455 156.94 51.9665 156.159 52.3572 155.508C52.6177 155.247 52.7479 154.987 53.0084 154.726C53.2689 154.466 53.3991 154.205 53.5294 153.945C53.6596 153.684 53.7899 153.554 53.9201 153.424C54.0504 153.294 54.0503 153.163 54.0503 153.163C54.0503 153.163 54.1806 153.033 54.1806 152.903C54.1806 152.773 54.3108 152.773 54.3108 152.642C54.3108 152.773 54.3108 152.903 54.3108 152.903C54.3108 153.033 54.3108 153.163 54.3108 153.163V157.852H55.483V151.08H54.7016C54.5713 151.08 54.5713 151.08 54.4411 151.21C54.3109 151.34 54.3108 151.34 54.3108 151.47C53.6596 152.252 53.1387 153.033 52.6177 153.684C52.3572 153.945 52.227 154.205 51.9665 154.466C51.706 154.726 51.5758 154.987 51.4455 155.247C51.3153 155.508 51.1851 155.638 51.0548 155.768C50.9246 155.898 50.9246 156.029 50.9246 156.029C50.9246 156.029 50.7943 156.159 50.7943 156.289C50.7943 156.419 50.6641 156.419 50.6641 156.55C50.6641 156.419 50.6641 156.289 50.6641 156.289C50.6641 156.159 50.6641 156.159 50.6641 156.029V151.34H49.4919V158.113H50.4036ZM36.598 151.601C36.598 151.47 36.4678 151.47 36.3376 151.34C36.2073 151.34 36.0771 151.21 36.0771 151.21H35.1654L36.9888 153.815C37.119 153.945 37.2492 154.075 37.3795 154.205C37.5097 154.336 37.6399 154.336 37.7702 154.466C37.5097 154.466 37.3795 154.596 37.2492 154.726C37.119 154.857 36.9888 154.987 36.8585 155.247L35.0352 158.113H35.8166C36.0771 158.113 36.2073 158.113 36.3376 157.982C36.4678 157.852 36.598 157.852 36.598 157.722L37.9004 155.638C38.0307 155.508 38.1609 155.378 38.2912 155.247C38.4214 155.117 38.6819 155.117 38.8121 155.117H39.4634V158.243H40.6355V155.117H41.2867C41.6774 155.117 42.0682 155.247 42.1984 155.638L43.5008 157.722C43.5008 157.852 43.6311 157.982 43.7613 157.982C43.8915 158.113 44.0218 158.113 44.2823 158.113H45.0637L43.2403 155.247C43.1101 155.117 42.9799 154.857 42.8496 154.726C42.7194 154.596 42.4589 154.466 42.3286 154.466C42.4589 154.466 42.5891 154.336 42.7194 154.205C42.8496 154.075 42.9798 153.945 43.1101 153.815L44.9335 151.21H44.0218C43.8916 151.21 43.7613 151.21 43.7613 151.34C43.6311 151.34 43.6311 151.47 43.5008 151.601L42.0682 153.815C41.9379 154.075 41.5472 154.336 41.1565 154.336H40.6355V151.34H39.4634V154.336H38.9424C38.8122 154.336 38.5516 154.336 38.4214 154.205C38.2912 154.075 38.1609 154.075 38.0307 153.815L36.598 151.601Z" fill="white"/>
<path d="M102.761 167.879C102.5 167.618 102.109 167.358 101.849 167.227C101.458 167.097 101.067 166.967 100.546 166.967C100.025 166.967 99.6347 167.097 99.1137 167.227C98.723 167.358 98.3323 167.618 98.0718 168.009C97.8113 168.269 97.5508 168.66 97.4206 169.181C97.2904 169.572 97.1601 170.093 97.1601 170.614C97.1601 171.135 97.2904 171.656 97.4206 172.046C97.5508 172.437 97.8113 172.828 98.0718 173.088C98.3323 173.349 98.723 173.609 98.9835 173.739C99.3742 173.87 99.765 174 100.156 174C100.416 174 100.677 174 100.937 174C101.198 174 101.458 173.87 101.588 173.87C101.849 173.739 101.979 173.609 102.24 173.479C102.37 173.349 102.63 173.219 102.761 172.958L102.37 172.567C102.37 172.437 102.24 172.437 102.109 172.437C101.979 172.437 101.979 172.437 101.849 172.567C101.719 172.698 101.719 172.698 101.588 172.828C101.458 172.958 101.328 172.958 101.067 173.088C100.937 173.218 100.677 173.218 100.286 173.218C100.025 173.218 99.765 173.218 99.5045 173.088C99.244 172.958 99.1138 172.828 98.8533 172.567C98.723 172.307 98.5928 172.046 98.4625 171.786C98.3323 171.525 98.3323 171.135 98.3323 170.744C98.3323 170.353 98.3323 169.962 98.4625 169.702C98.5928 169.442 98.723 169.051 98.8533 168.921C98.9835 168.66 99.244 168.53 99.5045 168.4C99.765 168.269 100.025 168.269 100.416 168.269C100.677 168.269 100.937 168.269 101.067 168.4C101.198 168.53 101.328 168.53 101.458 168.53C101.588 168.66 101.719 168.66 101.719 168.66C101.849 168.66 101.849 168.79 101.979 168.79H102.109C102.109 168.79 102.24 168.79 102.24 168.66L102.761 167.879ZM90.3876 169.572C90.1271 169.832 89.8666 170.093 89.6061 170.093H88.8247V167.097H87.6525V173.87H88.8247V170.744H89.6061C89.9969 170.744 90.3876 170.874 90.5178 171.265L91.8202 173.349C91.9505 173.479 91.9505 173.609 92.0807 173.609C92.211 173.739 92.3412 173.739 92.6017 173.739H93.3831L91.5598 170.874C91.4295 170.744 91.2992 170.483 91.169 170.353C91.0388 170.223 90.7783 170.093 90.648 170.093C90.7783 170.093 90.9086 169.962 91.0388 169.832C91.169 169.702 91.2993 169.572 91.4295 169.441L93.2529 166.837H92.3412C92.211 166.837 92.0807 166.837 91.9505 166.967C91.8202 166.967 91.8202 167.097 91.69 167.227L90.3876 169.572ZM80.7497 168.009C81.0102 168.139 81.1405 168.269 81.2707 168.4C81.4009 168.53 81.5312 168.79 81.6614 169.051C81.7917 169.311 81.7917 169.572 81.7917 169.832H78.0147C78.1449 169.181 78.2752 168.79 78.6659 168.4C79.0566 168.009 79.4473 167.879 80.0985 167.879C80.2287 167.879 80.4892 167.879 80.7497 168.009ZM78.6659 167.227C78.2752 167.358 77.8844 167.618 77.6239 167.879C77.3634 168.139 77.103 168.53 76.9727 168.921C76.8425 169.311 76.7123 169.832 76.7123 170.223C76.7123 170.874 76.8425 171.395 76.9727 171.786C77.103 172.177 77.3634 172.567 77.6239 172.958C77.8844 173.219 78.2752 173.479 78.6659 173.609C79.0566 173.739 79.4473 173.87 79.9683 173.87C80.2288 173.87 80.4892 173.87 80.7497 173.87C81.0102 173.87 81.2707 173.739 81.5312 173.739C81.7916 173.609 82.0521 173.609 82.1824 173.349C82.4429 173.218 82.5731 173.088 82.7033 172.828L82.3126 172.437C82.3126 172.307 82.1824 172.307 82.0521 172.307C81.9219 172.307 81.9219 172.307 81.7917 172.437C81.6614 172.567 81.5312 172.567 81.4009 172.698C81.2707 172.828 81.0102 172.828 80.88 172.958C80.6195 173.088 80.359 173.088 80.0985 173.088C79.838 173.088 79.4473 173.088 79.1868 172.958C78.9264 172.828 78.6659 172.698 78.5356 172.437C78.4054 172.177 78.1449 171.916 78.1449 171.656C78.0146 171.395 78.0147 171.004 78.0147 170.483H82.5731C82.7034 170.483 82.7033 170.483 82.8336 170.353C82.8336 170.353 82.8336 170.223 82.8336 169.962C82.8336 169.441 82.7034 169.051 82.5731 168.66C82.4429 168.269 82.1824 168.009 81.9219 167.748C81.6614 167.488 81.4009 167.227 81.0102 167.097C80.6195 166.967 80.2288 166.837 79.838 166.837C79.4473 166.967 79.0566 167.097 78.6659 167.227ZM67.4651 167.097C67.4651 168.009 67.3349 168.66 67.3349 169.311C67.2046 169.962 67.2046 170.483 67.0744 170.874C66.9441 171.265 66.8139 171.656 66.6837 171.916C66.5534 172.177 66.4232 172.437 66.293 172.567C66.1627 172.698 66.0325 172.828 65.772 172.828C65.6417 172.828 65.5115 172.958 65.251 172.958H64.8603V173.739C64.8603 173.87 64.9905 173.87 65.3813 173.87C65.6417 173.87 65.772 173.87 66.0325 173.739C66.2929 173.739 66.4232 173.609 66.6837 173.479C66.9442 173.349 67.0744 173.088 67.3349 172.828C67.4651 172.567 67.7256 172.177 67.8558 171.786C67.9861 171.395 68.1163 170.744 68.2466 170.223C68.3768 169.572 68.3768 168.79 68.507 168.009H70.7212V173.87H71.8933V167.097H67.4651ZM54.962 167.097V173.87H56.1341V168.009H59.3902V173.87H60.5623V167.097H54.962ZM45.5846 170.874L43.5007 167.358C43.5007 167.227 43.3705 167.227 43.2403 167.097C43.11 167.097 43.11 167.097 42.9798 167.097H42.0681V174H43.11V169.441C43.11 169.311 43.11 169.181 43.11 169.051C43.11 168.921 43.11 168.79 43.11 168.66L45.5846 172.828C45.5846 172.958 45.7148 172.958 45.7148 172.958C45.7148 172.958 45.8451 172.958 45.9753 172.958H46.1056C46.2358 172.958 46.2358 172.958 46.366 172.958L46.4963 172.828L48.8406 168.66C48.8406 168.79 48.8406 168.921 48.8406 169.051C48.8406 169.181 48.8406 169.311 48.8406 169.441V174H49.8826V167.097H48.9709C48.8406 167.097 48.8406 167.097 48.7104 167.097C48.5802 167.097 48.5801 167.227 48.4499 167.358L46.366 170.874C46.2358 171.135 46.2358 171.265 46.1056 171.525C46.1056 171.395 45.9753 171.265 45.9753 171.135C45.7148 171.135 45.5846 171.004 45.5846 170.874ZM32.4302 172.437C32.0395 172.046 31.9092 171.395 31.9092 170.483C31.9092 170.093 31.9093 169.702 32.0395 169.441C32.1697 169.181 32.3 168.79 32.4302 168.66C32.5605 168.4 32.821 168.269 33.0815 168.139C33.3419 168.009 33.6024 168.009 33.9931 168.009C34.6443 168.009 35.1653 168.269 35.556 168.66C35.9468 169.051 36.077 169.702 36.077 170.614C36.077 171.395 35.9468 172.046 35.556 172.567C35.1653 172.958 34.7746 173.218 33.9931 173.218C33.2117 173.088 32.6907 172.828 32.4302 172.437ZM32.5605 167.227C32.1697 167.358 31.779 167.618 31.5185 167.879C31.2581 168.139 30.9976 168.53 30.8673 169.051C30.7371 169.442 30.6068 169.962 30.6068 170.483C30.6068 171.004 30.7371 171.525 30.8673 171.916C30.9976 172.307 31.2581 172.698 31.5185 172.958C31.779 173.219 32.1697 173.479 32.5605 173.609C32.9512 173.739 33.4721 173.87 33.8629 173.87C34.3838 173.87 34.7746 173.739 35.1653 173.609C35.556 173.479 35.9468 173.219 36.2072 172.958C36.4677 172.698 36.7282 172.307 36.8584 171.916C36.9887 171.525 37.1189 171.004 37.1189 170.483C37.1189 169.962 36.9887 169.442 36.8584 169.051C36.7282 168.66 36.4677 168.269 36.2072 167.879C35.9468 167.618 35.556 167.358 35.1653 167.227C34.7746 167.097 34.2536 166.967 33.8629 166.967C33.3419 166.967 32.9512 167.097 32.5605 167.227ZM23.7041 169.572C23.4436 169.832 23.1831 170.093 22.9226 170.093H22.2714V167.097H21.0992V173.87H22.2714V170.744H23.0529C23.4436 170.744 23.8343 170.874 23.9646 171.265L25.267 173.349C25.3972 173.479 25.3972 173.609 25.5274 173.609C25.6577 173.739 25.7879 173.739 26.0484 173.739H26.8298L25.0065 170.874C24.8762 170.744 24.746 170.483 24.6158 170.353C24.4855 170.223 24.225 170.093 24.0948 170.093C24.225 170.093 24.3553 169.962 24.4855 169.832C24.6158 169.702 24.746 169.572 24.8762 169.441L26.6996 166.837H25.7879C25.6577 166.837 25.5274 166.837 25.3972 166.967C25.2669 166.967 25.267 167.097 25.1367 167.227L23.7041 169.572Z" fill="white"/>
</svg>
