<svg width="8" height="15" viewBox="0 0 8 15" fill="none" xmlns="http://www.w3.org/2000/svg">
<path d="M6.91141 7.98919L5.40339 6.33679C5.30714 6.24053 5.22692 6.01593 5.22692 5.88759L5.17879 4.17101V4.12288C5.17879 3.85016 4.97024 3.6416 4.69751 3.6416H3.20553H2.62799C2.38735 3.6416 2.13066 3.80203 2.01836 4.02663L0.0451025 8.21379C-0.00302586 8.32609 -0.0190686 8.45444 0.0290597 8.58278C0.0771881 8.71112 0.157402 8.79133 0.285744 8.85551L0.574514 8.98385C0.638685 9.01593 0.702857 9.03198 0.767028 9.03198C0.959541 9.03198 1.13601 8.91968 1.21623 8.75925L2.14671 6.89829V8.75925C2.14671 8.77529 2.13066 8.77529 2.13066 8.79133L0.558472 13.7004C0.4943 13.909 0.510343 14.1175 0.622643 14.3101C0.734942 14.5026 0.89537 14.6309 1.10393 14.679L1.21623 14.7111C1.2804 14.7272 1.36061 14.7432 1.42478 14.7432C1.79377 14.7432 2.11462 14.5026 2.22692 14.1657L3.68681 9.56139L4.20018 10.8288C4.32853 11.1336 4.45687 11.679 4.505 12.0159L4.76168 14.3582C4.79377 14.7272 5.09858 14.9999 5.46756 14.9999C5.53173 14.9999 5.5959 14.9999 5.64403 14.9838L5.75633 14.9518C6.17345 14.8555 6.47826 14.4223 6.41409 13.9892L6.0451 11.1336C5.99697 10.7646 5.83655 10.2031 5.69216 9.8662L5.19484 8.72716C5.19484 8.71112 5.17879 8.69508 5.17879 8.67903V7.90898L6.07719 8.83946C6.17345 8.93572 6.28574 8.98385 6.41409 8.98385C6.54243 8.98385 6.67077 8.93572 6.75098 8.83946L6.91141 8.66299C7.08788 8.48652 7.08788 8.18171 6.91141 7.98919Z" fill="#fff"/>
<path d="M3.78299 3.20856C4.66534 3.20856 5.38727 2.48663 5.38727 1.60428C5.38727 0.721925 4.66534 0 3.78299 0C2.90064 0 2.17871 0.721925 2.17871 1.60428C2.17871 2.48663 2.90064 3.20856 3.78299 3.20856Z" fill="#fff"/>
</svg>
