<svg width="67" height="83" viewBox="0 0 67 83" fill="none" xmlns="http://www.w3.org/2000/svg">
<circle cx="33.1744" cy="33.1744" r="33.1744" fill="#2F3337"/>
<path d="M23.9011 31.2445V21.65H22.7182V25.8558H17.1981V21.8471V21.65H15.9495V21.8471V31.2445H17.1324V26.973H22.6525V31.2445H23.9011ZM33.9556 28.4187C33.9556 29.6016 33.167 30.1273 32.1813 30.1273H30.6041V26.7101H32.1813C33.2328 26.7101 33.9556 27.2358 33.9556 28.4187ZM35.2042 28.4187C35.2042 26.5787 33.9556 25.5272 32.1813 25.5272H30.6041V21.7157H29.3555V31.1131V31.3102H32.1813C34.0214 31.3102 35.2042 30.2588 35.2042 28.4187ZM53.079 26.4472C53.079 28.5501 51.5018 30.193 49.3989 30.193C47.296 30.193 45.7188 28.5501 45.7188 26.4472C45.7188 24.3443 47.296 22.7014 49.3989 22.7014C51.5018 22.7014 53.079 24.3443 53.079 26.4472ZM54.3276 26.4472C54.3276 23.6214 52.2247 21.5185 49.3989 21.5185C46.8359 21.5185 44.8645 23.2929 44.5359 25.7901H41.2501V21.7157H40.0672V31.3102H41.3158V27.0387H44.5359C44.7988 29.6016 46.836 31.4417 49.4646 31.4417C52.2247 31.3759 54.3276 29.273 54.3276 26.4472ZM22.2582 38.079V36.8961H15.9495V38.079H18.5124V46.4906H19.6953V38.079H22.2582ZM36.8471 41.6933C36.8471 43.7962 35.27 45.4391 33.167 45.4391C31.0641 45.4391 29.4869 43.7962 29.4869 41.6933C29.4869 39.5904 31.0641 37.9475 33.167 37.9475C35.27 38.0132 36.8471 39.6561 36.8471 41.6933ZM38.0957 41.6933C38.0957 38.8675 35.9928 36.7646 33.167 36.7646C30.3413 36.7646 28.2383 38.8675 28.2383 41.6933C28.2383 44.5191 30.3413 46.622 33.167 46.622C35.9928 46.6877 38.0957 44.5191 38.0957 41.6933Z" fill="#D6B37E"/>
<path d="M43.7454 36.964V37.1612V46.5586H44.9283V42.287H50.4484V46.5586H51.6313V36.964H50.4484V41.1041H44.9283V37.1612V36.8983L43.7454 36.964Z" fill="#D6B37E"/>
<path d="M59.5865 33.8748H10.7595V34.2691H59.5865V33.8748Z" fill="#D6B37E"/>
</svg>
