<svg xmlns="http://www.w3.org/2000/svg" xmlns:xlink="http://www.w3.org/1999/xlink" width="72" height="75" viewBox="0 0 72 75"><defs><path id="16j3a" d="M1753.928 2511.735c0 .782-.633 1.416-1.412 1.416h-8.47v8.496c0 .782-.632 1.416-1.411 1.416-.78 0-1.412-.634-1.412-1.416v-8.495h-8.47c-.779 0-1.411-.635-1.411-1.417 0-.781.632-1.415 1.411-1.415h8.47v-8.497c0-.781.632-1.415 1.412-1.415.779 0 1.411.634 1.411 1.415v8.497h8.47c.78 0 1.412.634 1.412 1.415zm30.622 44.868a1.407 1.407 0 0 1-1.996-.04l-21.026-21.934c-5.133 4.269-11.718 6.841-18.893 6.841-16.347 0-29.644-13.338-29.644-29.735s13.297-29.735 29.644-29.735c16.346 0 29.644 13.338 29.644 29.735 0 8.183-3.315 15.603-8.665 20.985l20.975 21.88a1.42 1.42 0 0 1-.04 2.003zm-41.915-17.964c14.79 0 26.82-12.069 26.82-26.904 0-14.835-12.03-26.903-26.82-26.903-14.79 0-26.821 12.068-26.821 26.903 0 14.835 12.031 26.904 26.82 26.904z"/></defs><g><g transform="translate(-1713 -2482)"><use fill="#f5f4f6" xlink:href="#16j3a"/></g></g></svg>