<svg xmlns="http://www.w3.org/2000/svg" style="border: 0 !important; clip: rect(0 0 0 0) !important; height: 1px !important; margin: -1px !important; overflow: hidden !important; padding: 0 !important; position: absolute !important; width: 1px !important;" class="root-svg-symbols-element">
    <symbol id="aero" viewBox="0 0 71 15">
      <path d="M61.5445 11.18C61.7174 11.6985 62.0631 12.1306 62.4087 12.4762C62.7544 12.8219 63.1865 13.1676 63.705 13.3404C64.2236 13.5997 64.7421 13.6861 65.2606 13.6861C65.7791 13.6861 66.3841 13.5997 66.8162 13.3404C67.2483 13.1676 67.6804 12.8219 68.1124 12.4762C68.4581 12.1306 68.8038 11.6985 68.9766 11.18C69.1495 10.6614 69.3223 10.1429 69.3223 9.6244C69.3223 8.58736 68.8902 7.55032 68.1124 6.77254C67.7668 6.42687 67.3347 6.08119 66.8162 5.90835C66.2976 5.73551 65.7791 5.56267 65.2606 5.56267C64.7421 5.56267 64.2236 5.64909 63.705 5.90835C63.1865 6.08119 62.7544 6.42687 62.4087 6.77254C62.0631 7.11822 61.7174 7.55032 61.5445 8.06884C61.3717 8.58736 61.1989 9.10588 61.1989 9.6244C61.1989 10.2293 61.3717 10.7479 61.5445 11.18ZM70.2729 14.1182C70.2729 14.2911 70.1865 14.3775 70.1001 14.4639C70.0137 14.5503 69.8408 14.6367 69.7544 14.6367C69.4952 14.6367 69.2359 14.3775 69.2359 14.1182V12.7355C68.8038 13.3404 68.1989 13.859 67.5075 14.2046C66.2112 14.896 64.6557 14.896 63.2729 14.3775C62.668 14.1182 62.1495 13.7725 61.631 13.254C61.1989 12.8219 60.7668 12.217 60.5075 11.6121C60.2482 11.0071 60.0754 10.3158 60.0754 9.6244C60.0754 8.93304 60.1618 8.24168 60.5075 7.63674C60.7668 7.0318 61.1124 6.51329 61.631 5.99477C62.0631 5.56267 62.668 5.13057 63.2729 4.95773C63.8779 4.69847 64.5692 4.52563 65.2606 4.52563C66.0384 4.52563 66.8161 4.69847 67.5939 5.04415C68.2853 5.38983 68.8902 5.90835 69.3223 6.51329V1.50094C69.3223 1.24168 69.4952 0.982422 69.8408 0.982422C70.0137 0.982422 70.1001 1.06884 70.1865 1.15526C70.2729 1.24168 70.3594 1.41452 70.3594 1.50094V14.1182H70.2729ZM50.5692 11.2664C50.7421 11.7849 51.0878 12.217 51.4334 12.5627C51.7791 12.9083 52.2112 13.254 52.7297 13.4269C53.2482 13.6861 53.7668 13.7725 54.2853 13.7725C54.8038 13.7725 55.4087 13.6861 55.8408 13.4269C56.3594 13.254 56.7915 12.9083 57.1371 12.5627C57.4828 12.217 57.8285 11.7849 58.0013 11.2664C58.1742 10.7479 58.347 10.2293 58.347 9.71082C58.347 9.1923 58.2606 8.58736 58.0013 8.15526C57.8285 7.63674 57.4828 7.20464 57.1371 6.85896C56.7915 6.51329 56.3594 6.16761 55.8408 5.99477C55.3223 5.82193 54.8038 5.64909 54.2853 5.64909C53.7668 5.64909 53.2482 5.73551 52.7297 5.99477C52.2112 6.16761 51.7791 6.51329 51.4334 6.85896C51.0878 7.20464 50.7421 7.63674 50.5692 8.15526C50.3964 8.67378 50.2236 9.1923 50.2236 9.71082C50.2236 10.2293 50.31 10.7479 50.5692 11.2664ZM49.6186 7.72316C50.1371 6.51329 51.0878 5.56267 52.2976 5.04415C52.9026 4.78489 53.5939 4.61205 54.2853 4.61205C54.9766 4.61205 55.668 4.69847 56.2729 5.04415C56.8779 5.30341 57.3964 5.64909 57.8285 6.16761C58.2606 6.59971 58.6927 7.20464 58.952 7.80958C59.4705 9.10588 59.4705 10.4886 58.952 11.7849C58.6927 12.3898 58.347 12.9083 57.8285 13.4269C57.3964 13.859 56.7915 14.2911 56.2729 14.5503C55.668 14.8096 54.9766 14.9824 54.2853 14.9824C53.5939 14.9824 52.9026 14.8096 52.2976 14.5503C51.6927 14.2911 51.1742 13.9454 50.6557 13.4269C49.705 12.4762 49.1865 11.18 49.1865 9.88366C49.1865 9.01946 49.3594 8.3281 49.6186 7.72316ZM44.952 8.58736L48.4087 13.859C48.4952 13.9454 48.4952 14.1182 48.4952 14.2046C48.4952 14.3775 48.4087 14.4639 48.2359 14.5503C48.1495 14.6367 47.9766 14.6367 47.8902 14.6367C47.7174 14.6367 47.631 14.5503 47.5445 14.3775L44.1742 9.27872L42.3594 11.0071V14.0318C42.3594 14.2046 42.2729 14.2911 42.1865 14.3775C42.1001 14.4639 41.9273 14.5503 41.8408 14.5503C41.668 14.5503 41.5816 14.4639 41.4952 14.3775C41.4087 14.2911 41.3223 14.1182 41.3223 14.0318V1.50094C41.3223 1.3281 41.4087 1.24168 41.4952 1.15526C41.5816 1.06884 41.7544 0.982422 41.8408 0.982422C42.0137 0.982422 42.1001 1.06884 42.1865 1.15526C42.2729 1.24168 42.3594 1.41452 42.3594 1.50094V9.71082L47.5445 4.78489C47.631 4.69847 47.8038 4.61205 47.8902 4.61205C47.9766 4.61205 48.1495 4.69847 48.2359 4.78489C48.2359 4.78489 48.2359 4.78489 48.2359 4.87131C48.3223 4.95773 48.3223 5.04415 48.3223 5.21699C48.3223 5.38983 48.2359 5.47625 48.1495 5.56267L44.952 8.58736ZM24.9026 6.77254C25.1618 6.42687 25.4211 6.16761 25.6803 5.90835C25.9396 5.64909 26.2853 5.38983 26.631 5.21699C26.9766 5.04415 27.4087 4.87131 27.7544 4.78489C28.1865 4.69847 28.6186 4.61205 28.9643 4.61205H29.0507C29.2236 4.61205 29.31 4.61205 29.4828 4.78489C29.5692 4.87131 29.6557 5.04415 29.6557 5.13057C29.6557 5.30341 29.5692 5.38983 29.4828 5.47625C29.3964 5.56267 29.2236 5.64909 29.1371 5.64909H29.0507C28.5322 5.64909 27.9273 5.73551 27.4087 5.99477C26.8902 6.25403 26.4581 6.51329 26.1124 6.94538C25.7668 7.37748 25.4211 7.80958 25.1618 8.3281C24.9026 8.84662 24.8161 9.45156 24.8161 9.97008V14.2046C24.8161 14.3775 24.7297 14.4639 24.6433 14.5503C24.5569 14.6367 24.384 14.7232 24.2976 14.7232C24.1248 14.7232 24.0384 14.6367 23.952 14.5503C23.8655 14.4639 23.7791 14.2911 23.7791 14.2046V5.13057C23.7791 4.95773 23.8655 4.87131 23.952 4.78489C24.2112 4.52563 24.4705 4.52563 24.7297 4.69847C24.8161 4.78489 24.9026 4.95773 24.9026 5.04415V6.77254ZM21.3594 9.27872C21.3594 8.7602 21.1865 8.24168 21.0137 7.80958C20.8408 7.37748 20.4952 6.94538 20.1495 6.59971C19.8038 6.25403 19.3717 5.99477 18.9396 5.82193C17.989 5.47625 16.8655 5.47625 15.9149 5.82193C15.4828 5.99477 15.0507 6.25403 14.705 6.59971C14.3594 6.94538 14.1001 7.37748 13.8408 7.80958C13.5816 8.24168 13.4952 8.7602 13.4952 9.27872H21.3594ZM13.3223 10.1429C13.3223 10.6614 13.4952 11.0935 13.7544 11.5256C14.1865 12.3898 14.9643 13.0812 15.8285 13.4269C16.2606 13.5997 16.7791 13.6861 17.2976 13.6861C17.9026 13.6861 18.5075 13.5997 19.026 13.3404C19.5445 13.0812 19.9766 12.7355 20.3223 12.3034C20.4952 12.1306 20.668 12.1306 20.8408 12.217C20.9273 12.217 21.0137 12.3034 21.1001 12.3898C21.1865 12.4762 21.1865 12.5627 21.1865 12.7355C21.1865 12.9083 21.1001 12.9948 21.0137 13.0812C20.5816 13.5997 20.0631 13.9454 19.4581 14.2046C18.1618 14.896 16.6063 14.896 15.31 14.3775C14.705 14.1182 14.1865 13.7725 13.668 13.254C12.7174 12.3034 12.1989 11.0071 12.1989 9.6244C12.1989 8.93304 12.2853 8.24168 12.631 7.63674C12.8902 7.0318 13.2359 6.51329 13.7544 5.99477C14.1865 5.56267 14.7915 5.13057 15.3964 4.87131C16.0013 4.61205 16.6927 4.43921 17.384 4.43921C18.0754 4.43921 18.7668 4.61205 19.3717 4.87131C20.5816 5.38983 21.5322 6.34045 22.0507 7.55032C22.31 8.15526 22.4828 8.84662 22.4828 9.53798C22.4828 9.71082 22.3964 9.79724 22.31 9.88366C22.2236 9.97008 22.0507 10.0565 21.9643 10.0565L13.3223 10.1429ZM3.12479 9.10588H8.65565L5.97664 2.6244L3.12479 9.10588ZM9.17417 10.1429H2.69269L0.964295 14.2911C0.877875 14.5503 0.618616 14.6367 0.359357 14.5503C0.272937 14.4639 0.100098 14.3775 0.100098 14.2911C0.100098 14.1182 0.100098 14.0318 0.100098 13.859L5.45812 1.3281C5.54454 1.15526 5.71738 0.982422 5.89022 0.982422C6.06306 0.982422 6.32232 1.06884 6.32232 1.3281L11.6803 13.9454C11.7668 14.0318 11.7668 14.2046 11.6803 14.2911C11.6803 14.3775 11.5075 14.5503 11.4211 14.5503C11.3347 14.6367 11.1618 14.6367 10.989 14.5503C10.9026 14.4639 10.7297 14.3775 10.7297 14.2911L9.17417 10.1429ZM34.4087 10.1429C34.2359 9.97008 33.8902 9.88366 33.631 10.1429L30.0878 13.6861C29.8285 13.859 29.8285 14.2046 30.0878 14.4639C30.347 14.6367 30.6927 14.6367 30.8655 14.4639L34.4087 10.9207C34.5816 10.7479 34.5816 10.4022 34.4087 10.1429ZM39.3347 9.10588C38.989 9.10588 38.8162 9.36514 38.8162 9.6244C38.8162 11.7849 37.0013 13.5997 34.8408 13.5997C34.668 13.5997 34.4952 13.5997 34.3223 13.5133L35.705 12.1306C35.9643 11.9577 35.9643 11.6121 35.705 11.3528C35.5322 11.0935 35.1001 11.0935 34.9273 11.3528L32.9396 13.4269C32.6803 13.5997 32.6803 13.9454 32.9396 14.2046L33.026 14.2911C33.1124 14.3775 33.1124 14.3775 33.1989 14.3775C33.7174 14.5503 34.2359 14.6367 34.8408 14.6367C37.6927 14.6367 39.9396 12.3898 39.9396 9.53798C39.9396 9.36514 39.6803 9.10588 39.3347 9.10588ZM30.1742 11.6121L30.2606 11.6985C30.347 11.7849 30.5199 11.8713 30.6927 11.8713C30.8655 11.8713 30.952 11.7849 31.0384 11.6985L33.1989 9.6244C33.4581 9.45156 33.4581 9.01946 33.1989 8.84662C33.026 8.67378 32.6803 8.58736 32.4211 8.84662L30.952 10.2293C30.952 10.0565 30.8655 9.79724 30.8655 9.6244C30.8655 7.4639 32.6803 5.64909 34.8408 5.64909C35.1865 5.64909 35.3594 5.38983 35.3594 5.04415C35.3594 4.78489 35.1001 4.52563 34.8408 4.52563C31.989 4.52563 29.7421 6.77255 29.7421 9.6244C29.7421 10.2293 29.8285 10.7479 30.0013 11.3528C30.0878 11.5256 30.0878 11.5256 30.1742 11.6121Z" fill="#797979"/><path d="M37.5199 7.91165C37.0014 7.91165 36.5693 7.47955 36.5693 6.96103C36.5693 6.44251 37.0014 6.01041 37.5199 6.01041C38.0384 6.01041 38.4705 6.44251 38.4705 6.96103C38.4705 7.47955 38.0384 7.91165 37.5199 7.91165ZM38.8162 4.80054C37.6063 4.80054 36.5693 5.40548 35.6187 6.18325C35.3594 6.35609 35.1866 6.61535 34.9273 6.61535C33.9767 6.61535 33.4582 7.13387 32.9397 7.82523C32.7668 7.91165 32.8533 7.99807 33.0261 8.08449C33.5446 8.25733 33.9767 8.43017 34.4088 8.68943C34.3224 8.86227 34.4088 9.0351 34.4952 9.12152L35.273 9.8993C35.3594 9.98572 35.5323 10.0721 35.7051 9.98572C35.9644 10.4178 36.1372 10.8499 36.31 11.3684C36.3965 11.6277 36.4829 11.7141 36.7421 11.5413C37.2607 11.1092 37.8656 10.5907 37.952 9.81288C37.952 9.38078 38.2113 9.12152 38.3841 8.77585C39.0755 7.91165 39.6804 6.87461 39.7668 5.66473C39.7668 4.80054 39.594 4.80054 38.8162 4.80054Z" fill="#00BBB2"/>
    </symbol>
    <symbol id="close" viewBox="0 0 22 22">
      <path clip-rule="evenodd" d="M12.9378 10.9931L21.5838 2.34713C22.121 1.81042 22.121 0.939583 21.5838 0.402875C21.0467 -0.134292 20.1772 -0.134292 19.6396 0.402875L10.9936 9.04887L2.34758 0.402875C1.81042 -0.134292 0.940042 -0.134292 0.402875 0.402875C-0.134292 0.939583 -0.134292 1.81042 0.402875 2.34713L9.04979 10.9931L0.402875 19.6391C-0.134292 20.1763 -0.134292 21.0467 0.402875 21.5834C0.671458 21.8515 1.02346 21.9858 1.375 21.9858C1.727 21.9858 2.079 21.8515 2.34758 21.5829L10.9936 12.9369L19.6396 21.5829C19.9082 21.8515 20.2606 21.9858 20.6117 21.9858C20.9637 21.9858 21.3153 21.8515 21.5838 21.5829C22.121 21.0462 22.121 20.1754 21.5838 19.6387L12.9378 10.9931Z"/>
    </symbol>
    <symbol id="logo" viewBox="0 0 94 94">
      <path d="M59.986 51.2925V51.6185V65.7457H61.7247V59.3341H69.9837V65.7457H71.8311V51.2925H69.9837V57.5954H61.7247V51.6185V51.2925H59.986Z"/><path d="M30.1018 42.7074V28.2542H28.2544V34.5571H19.9954V28.5802V28.2542H18.148V28.5802V42.7074H19.9954V36.2958H28.2544V42.7074H30.1018ZM45.3156 38.4692C45.3156 40.2079 44.1203 41.0773 42.7075 41.0773H40.2081V35.8611H42.5989C44.1203 35.8611 45.3156 36.7305 45.3156 38.4692ZM47.163 38.4692C47.163 35.7524 45.3156 34.1224 42.5989 34.1224H40.2081V28.3628H38.3607V42.49V42.816H42.5989C45.3156 42.816 47.163 41.186 47.163 38.4692ZM74.0047 35.5351C74.0047 38.6866 71.6139 41.186 68.4625 41.186C65.311 41.186 62.9203 38.6866 62.9203 35.5351C62.9203 32.3837 65.311 29.8842 68.4625 29.8842C71.6139 29.8842 74.0047 32.3837 74.0047 35.5351ZM75.8521 35.5351C75.8521 31.297 72.7006 28.1455 68.4625 28.1455C64.5503 28.1455 61.6162 30.8623 61.0729 34.5571H56.1827V28.2542H54.3353V42.7074H56.1827V36.2958H61.0729C61.3989 40.0993 64.5503 42.9247 68.4625 42.9247C72.7006 42.9247 75.8521 39.7733 75.8521 35.5351ZM27.6023 53.0311V51.2923H18.148V53.0311H22.0601V65.7455H23.9075V53.0311H27.6023ZM49.5538 58.4646C49.5538 61.616 47.163 64.1154 44.0116 64.1154C40.8601 64.1154 38.4694 61.616 38.4694 58.4646C38.4694 55.3131 40.8601 52.8137 44.0116 52.8137C47.2717 52.8137 49.5538 55.3131 49.5538 58.4646ZM51.5099 58.4646C51.5099 54.2264 48.3584 51.075 44.1203 51.075C39.8821 51.075 36.7307 54.2264 36.7307 58.4646C36.7307 62.7027 39.8821 65.8542 44.1203 65.8542C48.2497 65.9628 51.5099 62.7027 51.5099 58.4646Z"/><path d="M83.6761 46.7285H10.3235V47.2719H83.6761V46.7285Z"/><path d="M1.08671 92.9133H92.8046V1.08671H1.08671V92.9133ZM94 94H0V0H94V94Z"/>
    </symbol>
    <symbol id="ok" viewBox="0 0 31 23">
      <path d="M2 12.2857L10.2857 20L29.4286 2" stroke="#D6B37E" stroke-width="3"/>
    </symbol>
    <symbol id="play" viewBox="0 0 100 100">
      <circle cx="50" cy="50" r="50" fill="#D6B37E"/><path d="M47 61V39L61 51L47 61Z" fill="#fff"/>
    </symbol>
    <symbol id="up" viewBox="0 0 444.819 444.819">
      <path d="M433.968,278.657L248.387,92.79c-7.419-7.044-16.08-10.566-25.977-10.566c-10.088,0-18.652,3.521-25.697,10.566 L10.848,278.657C3.615,285.887,0,294.549,0,304.637c0,10.28,3.619,18.843,10.848,25.693l21.411,21.413 c6.854,7.23,15.42,10.852,25.697,10.852c10.278,0,18.842-3.621,25.697-10.852L222.41,213.271L361.168,351.74 c6.848,7.228,15.413,10.852,25.7,10.852c10.082,0,18.747-3.624,25.975-10.852l21.409-21.412 c7.043-7.043,10.567-15.608,10.567-25.693C444.819,294.545,441.205,285.884,433.968,278.657z"/>
    </symbol>
    <symbol id="video" viewBox="0 0 32 32">
      <circle cx="16" cy="16" r="15" fill="none" stroke="#fff" stroke-width="2"/><path d="M13.3955 21.5798V10.7891L20.0932 16.3705L13.3955 21.5798Z" fill="#fff"/>
    </symbol></svg>