<svg width="230" height="124" viewBox="0 0 230 124" fill="none" xmlns="http://www.w3.org/2000/svg">
<path d="M79.1306 67.6621V68.0922V86.728H81.4242V78.2702H92.319V86.728H94.756V67.6621H92.319V75.9766H81.4242V68.0922V67.6621H79.1306Z" fill="#2f3337"/>
<path d="M39.7087 56.3372V37.2713H37.2717V45.5857H26.3769V37.7013V37.2713H23.9399V37.7013V56.3372H26.3769V47.8794H37.2717V56.3372H39.7087ZM59.7781 50.7464C59.7781 53.0401 58.2012 54.1869 56.3376 54.1869H53.0405V47.306H56.1943C58.2012 47.306 59.7781 48.4528 59.7781 50.7464ZM62.2151 50.7464C62.2151 47.1626 59.7781 45.0123 56.1943 45.0123H53.0405V37.4146H50.6035V56.0505V56.4805H56.1943C59.7781 56.4805 62.2151 54.3302 62.2151 50.7464ZM97.6232 46.8759C97.6232 51.0331 94.4694 54.3302 90.3122 54.3302C86.155 54.3302 83.0012 51.0331 83.0012 46.8759C83.0012 42.7187 86.155 39.4216 90.3122 39.4216C94.4694 39.4216 97.6232 42.7187 97.6232 46.8759ZM100.06 46.8759C100.06 41.2852 95.903 37.1279 90.3122 37.1279C85.1515 37.1279 81.281 40.7117 80.5642 45.5857H74.1134V37.2713H71.6764V56.3372H74.1134V47.8794H80.5642C80.9943 52.8967 85.1515 56.6239 90.3122 56.6239C95.903 56.6239 100.06 52.4667 100.06 46.8759ZM36.4116 69.9557V67.662H23.9399V69.9557H29.1006V86.7279H31.5376V69.9557H36.4116ZM65.3688 77.1233C65.3688 81.2805 62.2151 84.5776 58.0579 84.5776C53.9006 84.5776 50.7469 81.2805 50.7469 77.1233C50.7469 72.9661 53.9006 69.669 58.0579 69.669C62.3584 69.669 65.3688 72.9661 65.3688 77.1233ZM67.9492 77.1233C67.9492 71.5326 63.792 67.3753 58.2012 67.3753C52.6105 67.3753 48.4532 71.5326 48.4532 77.1233C48.4532 82.7141 52.6105 86.8713 58.2012 86.8713C63.6486 87.0146 67.9492 82.7141 67.9492 77.1233Z" fill="#2f3337"/>
<path d="M110.381 61.6416H13.6184V62.3584H110.381V61.6416Z" fill="#2f3337"/>
<path d="M1.43353 122.566H122.423V1.43353H1.43353V122.566ZM124 124H0V0H124V124Z" fill="#2f3337"/>
<path d="M198.113 47.3062C197.97 47.3062 197.827 47.1629 197.827 47.1629C197.683 47.0195 197.683 46.8762 197.683 46.7328C197.683 46.5895 197.683 46.4461 197.683 46.1594H196.967C196.823 46.1594 196.823 46.1594 196.823 46.3028C196.823 46.4461 196.823 46.4461 196.823 46.5895C196.823 46.8762 196.823 47.0195 196.967 47.1629C197.11 47.3062 197.253 47.4496 197.397 47.5929C197.54 47.7363 197.827 47.8797 197.97 47.8797C198.257 47.8797 198.543 48.023 198.83 48.023C199.117 48.023 199.404 48.023 199.69 47.8797C199.977 47.7363 200.12 47.7363 200.264 47.5929C200.407 47.4496 200.55 47.3062 200.694 47.1629C200.837 47.0195 200.837 46.7328 200.837 46.5895C200.837 46.4461 200.837 46.4461 200.837 46.3028C200.837 46.1594 200.694 46.1594 200.694 46.1594H199.977C199.977 46.4461 199.977 46.5895 199.977 46.7328C199.977 46.8762 199.834 47.0195 199.834 47.1629C199.69 47.3062 199.69 47.3062 199.547 47.3062C199.404 47.3062 199.26 47.3062 199.117 47.3062C198.4 47.4496 198.257 47.4496 198.113 47.3062ZM196.25 55.9074C196.393 55.9074 196.393 55.9074 196.536 55.764C196.68 55.6207 196.68 55.6207 196.68 55.6207C197.253 54.7606 197.827 54.0438 198.257 53.4704C198.4 53.1837 198.687 52.897 198.83 52.6103C198.973 52.3236 199.26 52.0369 199.404 51.8935C199.547 51.7502 199.69 51.4635 199.834 51.3201C199.977 51.1768 199.977 51.1768 199.977 51.0334L200.12 50.8901C200.12 50.7467 200.264 50.7467 200.264 50.6034C200.264 50.7467 200.264 50.7467 200.264 50.8901C200.264 51.0334 200.264 51.0334 200.264 51.1768V55.9074H201.41V49.0265H200.694C200.55 49.0265 200.55 49.0265 200.407 49.1698C200.264 49.1698 200.264 49.3132 200.264 49.3132C199.69 50.1733 199.117 50.8901 198.687 51.4635C198.543 51.7502 198.257 52.0369 198.113 52.3236C197.97 52.6103 197.683 52.897 197.54 53.0403C197.397 53.1837 197.253 53.4704 197.11 53.6138C196.967 53.7571 196.967 53.7571 196.967 53.7571L196.823 53.9005C196.823 53.9005 196.68 54.0438 196.68 54.1872C196.68 54.0438 196.68 54.0438 196.68 53.9005C196.68 53.7571 196.68 53.7571 196.68 53.6138V49.0265H195.533V55.9074H196.25ZM185.928 54.3305C185.642 53.9005 185.355 53.1837 185.355 52.4669C185.355 52.0369 185.355 51.7502 185.498 51.3201C185.642 51.0334 185.642 50.7467 185.928 50.46C186.072 50.1733 186.358 50.0299 186.502 49.8866C186.788 49.7432 187.075 49.7432 187.362 49.7432C188.079 49.7432 188.509 50.0299 188.939 50.46C189.225 50.8901 189.369 51.6068 189.369 52.3236C189.369 53.1837 189.225 53.7571 188.939 54.1872C188.652 54.6172 188.079 54.9039 187.362 54.9039C186.788 55.0473 186.215 54.9039 185.928 54.3305ZM186.072 49.1698C185.642 49.3132 185.355 49.5999 185.068 49.8866C184.782 50.1733 184.638 50.6034 184.352 51.0334C184.208 51.4635 184.065 51.8935 184.065 52.4669C184.065 53.0403 184.208 53.4704 184.352 53.9005C184.495 54.3305 184.782 54.7606 185.068 55.0473C185.355 55.334 185.642 55.6207 186.072 55.764C186.502 55.9074 186.932 56.0507 187.362 56.0507C187.792 56.0507 188.365 55.9074 188.652 55.764C189.082 55.6207 189.369 55.334 189.656 55.0473C189.942 54.7606 190.086 54.3305 190.372 53.9005C190.516 53.4704 190.659 53.0403 190.659 52.4669C190.659 51.8935 190.516 51.4635 190.372 51.0334C190.229 50.6034 189.942 50.1733 189.656 49.8866C189.369 49.5999 189.082 49.3132 188.652 49.1698C188.222 49.0265 187.792 48.8831 187.362 48.8831C186.932 49.0265 186.502 49.0265 186.072 49.1698ZM174.89 49.0265C174.89 49.8866 174.747 50.6034 174.747 51.3201C174.604 51.8935 174.604 52.4669 174.46 52.897C174.317 53.3271 174.173 53.7571 174.03 54.0438C173.887 54.3305 173.743 54.4739 173.6 54.6172C173.457 54.7606 173.313 54.9039 173.17 54.9039C173.027 54.9039 172.883 55.0473 172.74 55.0473H172.453V55.764C172.453 55.9074 172.597 55.9074 173.027 55.9074C173.17 55.9074 173.457 55.9074 173.743 55.764C174.03 55.764 174.173 55.6207 174.317 55.4773C174.46 55.334 174.747 55.0473 174.89 54.9039C175.034 54.6172 175.177 54.3305 175.464 53.7571C175.607 53.3271 175.75 52.7536 175.894 52.1802C176.037 51.6068 176.037 50.7467 176.18 49.8866H178.331V55.9074H179.478V49.0265H174.89ZM162.849 55.9074C162.992 55.9074 162.992 55.9074 163.135 55.764C163.279 55.764 163.279 55.6207 163.279 55.6207C163.852 54.7606 164.425 54.0438 164.856 53.4704C164.999 53.1837 165.286 52.897 165.429 52.6103C165.572 52.3236 165.859 52.0369 166.002 51.8935C166.146 51.7502 166.289 51.4635 166.432 51.3201C166.576 51.1768 166.576 51.1768 166.576 51.0334L166.719 50.8901C166.719 50.7467 166.862 50.7467 166.862 50.6034C166.862 50.7467 166.862 50.7467 166.862 50.8901C166.862 51.0334 166.862 51.0334 166.862 51.1768V55.9074H168.009V49.0265H167.293C167.149 49.0265 167.149 49.0265 167.006 49.1698C166.862 49.3132 166.862 49.3132 166.862 49.3132C166.289 50.1733 165.716 50.8901 165.286 51.4635C165.142 51.7502 164.856 52.0369 164.712 52.3236C164.569 52.6103 164.282 52.897 164.139 53.0403C163.995 53.1837 163.852 53.4704 163.709 53.6138C163.565 53.7571 163.565 53.7571 163.565 53.7571L163.422 53.9005C163.422 54.0438 163.279 54.0438 163.279 54.1872C163.279 54.0438 163.279 54.0438 163.279 53.9005C163.279 53.7571 163.279 53.7571 163.279 53.6138V49.0265H162.132V55.9074H162.849ZM148.943 49.4565C148.943 49.3132 148.8 49.3132 148.657 49.1698C148.513 49.1698 148.513 49.0265 148.37 49.0265H147.367L149.087 51.6068C149.23 51.7502 149.23 51.8935 149.373 52.0369C149.517 52.1802 149.66 52.1802 149.804 52.3236C149.517 52.3236 149.373 52.4669 149.23 52.6103C149.087 52.7536 148.943 52.897 148.8 53.0403L146.936 55.9074H147.797C147.94 55.9074 148.227 55.9074 148.227 55.764C148.37 55.764 148.37 55.6207 148.513 55.4773L149.804 53.3271C149.947 53.1837 150.09 53.0403 150.234 52.897C150.377 52.7536 150.52 52.7536 150.807 52.7536H151.524V55.9074H152.671V52.897H153.387C153.817 52.897 154.104 53.0403 154.391 53.4704L155.681 55.6207C155.681 55.764 155.824 55.9074 155.968 55.9074C156.111 55.9074 156.254 56.0507 156.398 56.0507H157.258L155.394 53.1837C155.251 53.0403 155.108 52.897 154.964 52.7536C154.821 52.6103 154.677 52.4669 154.391 52.4669C154.534 52.4669 154.678 52.3236 154.821 52.1802C154.964 52.0369 155.108 51.8935 155.108 51.7502L156.828 49.1698H155.824C155.681 49.1698 155.538 49.1698 155.538 49.3132C155.394 49.3132 155.394 49.4565 155.251 49.5999L153.817 51.7502C153.674 52.0369 153.387 52.1802 152.957 52.1802H152.384V49.1698H151.954V52.1802H151.38C151.237 52.1802 151.094 52.1802 150.95 52.0369C150.807 51.8935 150.664 51.8935 150.664 51.7502L148.943 49.4565Z" fill="#2f3337"/>
<path d="M229.221 70.3863C228.934 70.0996 228.647 69.8129 228.217 69.6695C227.787 69.5262 227.357 69.3828 226.927 69.3828C226.354 69.3828 225.924 69.5262 225.494 69.6695C225.064 69.8129 224.777 70.0996 224.49 70.3863C224.203 70.673 224.06 71.103 223.917 71.5331C223.773 71.9632 223.773 72.3932 223.773 72.9666C223.773 73.54 223.917 73.9701 224.06 74.4002C224.203 74.8302 224.49 75.2603 224.633 75.547C224.92 75.8337 225.207 76.1204 225.637 76.2637C226.067 76.4071 226.354 76.5504 226.784 76.5504C227.07 76.5504 227.214 76.5504 227.5 76.5504C227.787 76.5504 227.931 76.4071 228.217 76.4071C228.504 76.2637 228.647 76.2637 228.791 76.1204C228.934 75.977 229.077 75.8337 229.364 75.6903L229.077 75.2603C229.077 75.1169 228.934 75.1169 228.791 75.1169C228.647 75.1169 228.647 75.1169 228.504 75.2603C228.361 75.2603 228.361 75.4036 228.217 75.547C228.074 75.6903 227.931 75.6903 227.787 75.8337C227.644 75.8337 227.357 75.977 227.07 75.977C226.784 75.977 226.497 75.977 226.21 75.8337C225.924 75.6903 225.78 75.547 225.637 75.4036C225.494 75.1169 225.35 74.9736 225.207 74.5435C225.064 74.2568 225.063 73.8267 225.063 73.3967C225.063 72.9666 225.064 72.6799 225.207 72.3932C225.35 72.1065 225.494 71.8198 225.637 71.5331C225.78 71.2464 226.067 71.103 226.354 70.9597C226.64 70.8163 226.927 70.8163 227.214 70.8163C227.5 70.8163 227.644 70.8163 227.787 70.9597C227.931 70.9597 228.074 71.103 228.217 71.103C228.361 71.103 228.504 71.2464 228.504 71.2464C228.647 71.2464 228.647 71.3897 228.791 71.3897H228.934C228.934 71.3897 228.934 71.3897 229.077 71.2464L229.221 70.3863ZM216.749 72.1065C216.606 72.3932 216.319 72.5366 215.889 72.5366H215.172V69.5262H214.025V76.4071H215.172V73.3967H215.889C216.319 73.3967 216.606 73.54 216.892 73.9701L218.183 76.1204C218.326 76.2637 218.326 76.4071 218.469 76.4071C218.613 76.5504 218.756 76.5504 218.899 76.5504H219.759L217.896 73.6834C217.753 73.54 217.609 73.3967 217.466 73.2533C217.322 73.11 217.179 73.11 216.892 72.9666C217.036 72.9666 217.179 72.8233 217.322 72.6799C217.466 72.5366 217.609 72.3932 217.609 72.2499L219.329 69.6695H218.326C218.183 69.6695 218.039 69.6695 218.039 69.8129C217.896 69.8129 217.896 69.9562 217.753 70.0996L216.749 72.1065ZM207.144 70.5296C207.431 70.673 207.574 70.8163 207.718 70.9597C207.861 71.103 208.005 71.3897 208.005 71.5331C208.148 71.8198 208.148 71.9632 208.148 72.2499H204.421C204.564 71.6765 204.707 71.2464 204.994 70.8163C205.281 70.5296 205.854 70.2429 206.428 70.2429C206.714 70.3863 206.858 70.5296 207.144 70.5296ZM204.994 69.8129C204.564 69.9562 204.277 70.2429 203.991 70.5296C203.704 70.8163 203.561 71.2464 203.417 71.6765C203.274 72.1065 203.131 72.5366 203.131 72.9666C203.131 73.54 203.274 74.1134 203.417 74.5435C203.561 74.9736 203.847 75.4036 204.134 75.6903C204.421 75.977 204.707 76.2637 205.137 76.4071C205.568 76.5504 205.998 76.6938 206.428 76.6938C206.714 76.6938 206.858 76.6938 207.144 76.6938C207.431 76.6938 207.574 76.5504 207.861 76.5504C208.148 76.4071 208.291 76.4071 208.578 76.2637C208.721 76.1204 209.008 75.977 209.151 75.8337L208.865 75.4036C208.865 75.2603 208.721 75.2603 208.578 75.2603C208.435 75.2603 208.435 75.2603 208.291 75.4036C208.148 75.4036 208.005 75.547 207.861 75.6903C207.718 75.8337 207.574 75.8337 207.288 75.977C207.001 75.977 206.858 76.1204 206.571 76.1204C206.284 76.1204 205.998 76.1204 205.711 75.977C205.424 75.8337 205.281 75.6903 204.994 75.547C204.851 75.4036 204.707 75.1169 204.564 74.6869C204.421 74.4001 204.421 73.9701 204.421 73.54H209.008C209.151 73.54 209.151 73.54 209.295 73.3967C209.295 73.3967 209.295 73.2533 209.295 72.9666C209.295 72.5366 209.295 72.1065 209.008 71.6765C208.865 71.2464 208.721 70.9597 208.435 70.673C208.148 70.3863 207.861 70.2429 207.574 70.0996C207.288 69.9562 206.858 69.9562 206.428 69.9562C205.854 69.5262 205.424 69.6695 204.994 69.8129ZM193.956 69.6695C193.956 70.5296 193.813 71.2464 193.813 71.9632C193.669 72.5366 193.669 73.11 193.526 73.54C193.383 73.9701 193.239 74.4001 193.096 74.6869C192.953 74.9736 192.809 75.1169 192.666 75.2603C192.522 75.4036 192.379 75.547 192.236 75.547C192.092 75.547 191.949 75.6903 191.806 75.6903H191.519V76.4071C191.519 76.5504 191.662 76.5504 192.092 76.5504C192.379 76.5504 192.522 76.5504 192.809 76.4071C193.096 76.4071 193.239 76.2637 193.383 76.1204C193.526 75.977 193.813 75.6903 193.956 75.547C194.099 75.2603 194.243 74.9736 194.529 74.4002C194.673 73.9701 194.816 73.3967 194.959 72.8233C195.103 72.2499 195.103 71.3897 195.246 70.5296H197.396V76.4071H198.543V69.5262H193.956V69.6695ZM181.341 69.6695V76.5504H182.488V70.673H185.785V76.5504H186.932V69.6695H181.341ZM172.023 73.54L169.873 69.9562C169.873 69.8129 169.729 69.8129 169.729 69.8129C169.586 69.8129 169.586 69.8129 169.443 69.8129H168.439V76.6938H169.586V72.1065C169.586 71.9632 169.586 71.8198 169.586 71.6765C169.586 71.5331 169.586 71.3897 169.586 71.2464L172.023 75.4036L172.166 75.547H172.31H172.453C172.596 75.547 172.596 75.547 172.596 75.547L172.74 75.4036L175.177 71.2464C175.177 71.3897 175.177 71.5331 175.177 71.6765C175.177 71.8198 175.177 71.9632 175.177 72.1065V76.6938H176.324V69.8129H175.32C175.177 69.8129 175.177 69.8129 175.033 69.8129C174.89 69.8129 174.89 69.9562 174.89 70.0996L172.74 73.6834C172.596 73.8267 172.596 74.1134 172.453 74.4002C172.453 74.2568 172.31 74.1134 172.31 74.1134C172.166 73.6834 172.023 73.54 172.023 73.54ZM158.835 74.9736C158.548 74.5435 158.261 73.8267 158.261 73.11C158.261 72.6799 158.261 72.3932 158.405 71.9632C158.548 71.6765 158.548 71.3897 158.835 71.103C158.978 70.8163 159.265 70.673 159.408 70.5296C159.695 70.3863 159.981 70.3863 160.268 70.3863C160.985 70.3863 161.415 70.673 161.845 71.103C162.132 71.5331 162.275 72.2499 162.275 72.9666C162.275 73.8267 162.132 74.4002 161.845 74.8302C161.558 75.2603 160.985 75.547 160.268 75.547C159.551 75.6903 159.121 75.4036 158.835 74.9736ZM158.978 69.8129C158.548 69.9562 158.261 70.2429 157.974 70.5296C157.688 70.8163 157.544 71.2464 157.258 71.6765C157.114 72.1065 156.971 72.5366 156.971 73.11C156.971 73.6834 157.114 74.1134 157.258 74.5435C157.401 74.9736 157.688 75.4036 157.974 75.6903C158.261 75.977 158.548 76.2637 158.978 76.4071C159.408 76.5504 159.838 76.6938 160.268 76.6938C160.698 76.6938 161.272 76.5504 161.558 76.4071C161.988 76.2637 162.275 75.977 162.562 75.6903C162.848 75.4036 162.992 74.9736 163.279 74.5435C163.422 74.1134 163.565 73.6834 163.565 73.11C163.565 72.5366 163.422 72.1065 163.279 71.6765C163.135 71.2464 162.848 70.8163 162.562 70.5296C162.275 70.2429 161.988 69.9562 161.558 69.8129C161.128 69.6695 160.698 69.5262 160.268 69.5262C159.838 69.5262 159.408 69.6695 158.978 69.8129ZM150.09 72.1065C149.947 72.3932 149.66 72.5366 149.23 72.5366H148.513V69.5262H147.366V76.4071H148.513V73.3967H149.23C149.66 73.3967 149.947 73.54 150.233 73.9701L151.524 76.1204C151.667 76.2637 151.667 76.4071 151.81 76.4071C151.954 76.5504 152.097 76.5504 152.24 76.5504H153.1L151.237 73.6834C151.094 73.54 150.95 73.3967 150.807 73.2533C150.663 73.11 150.52 73.11 150.233 72.9666C150.377 72.9666 150.52 72.8233 150.663 72.6799C150.807 72.5366 150.95 72.3932 150.95 72.2499L152.67 69.6695H151.667C151.524 69.6695 151.38 69.6695 151.38 69.8129C151.237 69.8129 151.237 69.9562 151.094 70.0996L150.09 72.1065Z" fill="#2f3337"/>
</svg>
