<svg width="15" height="13" viewBox="0 0 15 13" fill="none" xmlns="http://www.w3.org/2000/svg">
<path d="M8.46254 9.02078C8.19559 9.18621 7.85344 9.27645 7.50001 9.27645C7.14658 9.27645 6.80444 9.18621 6.53748 9.02078L2.17604 6.34751C2.17604 6.34751 1.78125 6.10688 1.78125 6.65206C1.78125 7.27244 1.78125 9.13357 1.78125 9.13357C1.78125 9.15989 1.78125 9.28397 1.78125 9.32157C1.78125 10.7278 4.34172 12.243 7.49625 12.243C10.6508 12.243 13.2113 10.7278 13.2113 9.32157C13.2113 9.28397 13.2113 9.15989 13.2113 9.13357C13.2113 9.13357 13.2113 7.15964 13.2113 6.50166C13.2113 6.06176 12.933 6.27607 12.933 6.27607L8.46254 9.02078Z" fill="white"/>
<path d="M14.749 4.22327C15.0837 4.01648 15.0837 3.68185 14.749 3.47506L8.1091 0.155095C7.77447 -0.0516982 7.22553 -0.0516982 6.8909 0.155095L0.250971 3.47506C-0.0836571 3.68185 -0.0836571 4.01648 0.250971 4.22327L6.8909 8.29521C7.22553 8.502 7.77447 8.502 8.1091 8.29521" fill="white"/>
<path d="M14.4746 10.2578C14.4746 9.13357 14.4746 5.76097 14.4746 5.76097C14.4746 5.76097 14.4784 5.54666 14.3505 5.61809C14.249 5.67449 14.0008 5.81361 13.9144 5.88881C13.8129 5.97528 13.8354 6.17456 13.8354 6.17456C13.8354 6.17456 13.8354 9.23885 13.8354 10.2578C13.8354 10.3142 13.7865 10.3443 13.7602 10.3555C13.5309 10.4909 13.3767 10.739 13.3767 11.0248C13.3767 11.4534 13.7264 11.8031 14.155 11.8031C14.5836 11.8031 14.9333 11.4534 14.9333 11.0248C14.9333 10.739 14.7791 10.4871 14.546 10.3518C14.5235 10.3443 14.4746 10.3179 14.4746 10.2578Z" fill="white"/>
</svg>
