<svg width="22" height="22" viewBox="0 0 22 22" xmlns="http://www.w3.org/2000/svg"><path clip-rule="evenodd" d="M12.9378 10.9931L21.5838 2.34713C22.121 1.81042 22.121 0.939583 21.5838 0.402875C21.0467 -0.134292 20.1772 -0.134292 19.6396 0.402875L10.9936 9.04887L2.34758 0.402875C1.81042 -0.134292 0.940042 -0.134292 0.402875 0.402875C-0.134292 0.939583 -0.134292 1.81042 0.402875 2.34713L9.04979 10.9931L0.402875 19.6391C-0.134292 20.1763 -0.134292 21.0467 0.402875 21.5834C0.671458 21.8515 1.02346 21.9858 1.375 21.9858C1.727 21.9858 2.079 21.8515 2.34758 21.5829L10.9936 12.9369L19.6396 21.5829C19.9082 21.8515 20.2606 21.9858 20.6117 21.9858C20.9637 21.9858 21.3153 21.8515 21.5838 21.5829C22.121 21.0462 22.121 20.1754 21.5838 19.6387L12.9378 10.9931Z"/></svg>