<svg width="94" height="94" viewBox="0 0 94 94" xmlns="http://www.w3.org/2000/svg"><path d="M59.986 51.2925V51.6185V65.7457H61.7247V59.3341H69.9837V65.7457H71.8311V51.2925H69.9837V57.5954H61.7247V51.6185V51.2925H59.986Z"/><path d="M30.1018 42.7074V28.2542H28.2544V34.5571H19.9954V28.5802V28.2542H18.148V28.5802V42.7074H19.9954V36.2958H28.2544V42.7074H30.1018ZM45.3156 38.4692C45.3156 40.2079 44.1203 41.0773 42.7075 41.0773H40.2081V35.8611H42.5989C44.1203 35.8611 45.3156 36.7305 45.3156 38.4692ZM47.163 38.4692C47.163 35.7524 45.3156 34.1224 42.5989 34.1224H40.2081V28.3628H38.3607V42.49V42.816H42.5989C45.3156 42.816 47.163 41.186 47.163 38.4692ZM74.0047 35.5351C74.0047 38.6866 71.6139 41.186 68.4625 41.186C65.311 41.186 62.9203 38.6866 62.9203 35.5351C62.9203 32.3837 65.311 29.8842 68.4625 29.8842C71.6139 29.8842 74.0047 32.3837 74.0047 35.5351ZM75.8521 35.5351C75.8521 31.297 72.7006 28.1455 68.4625 28.1455C64.5503 28.1455 61.6162 30.8623 61.0729 34.5571H56.1827V28.2542H54.3353V42.7074H56.1827V36.2958H61.0729C61.3989 40.0993 64.5503 42.9247 68.4625 42.9247C72.7006 42.9247 75.8521 39.7733 75.8521 35.5351ZM27.6023 53.0311V51.2923H18.148V53.0311H22.0601V65.7455H23.9075V53.0311H27.6023ZM49.5538 58.4646C49.5538 61.616 47.163 64.1154 44.0116 64.1154C40.8601 64.1154 38.4694 61.616 38.4694 58.4646C38.4694 55.3131 40.8601 52.8137 44.0116 52.8137C47.2717 52.8137 49.5538 55.3131 49.5538 58.4646ZM51.5099 58.4646C51.5099 54.2264 48.3584 51.075 44.1203 51.075C39.8821 51.075 36.7307 54.2264 36.7307 58.4646C36.7307 62.7027 39.8821 65.8542 44.1203 65.8542C48.2497 65.9628 51.5099 62.7027 51.5099 58.4646Z"/><path d="M83.6761 46.7285H10.3235V47.2719H83.6761V46.7285Z"/><path d="M1.08671 92.9133H92.8046V1.08671H1.08671V92.9133ZM94 94H0V0H94V94Z"/></svg>